<svg class="rich-terminal" viewBox="0 0 1726 928.4" xmlns="http://www.w3.org/2000/svg">
    <!-- Generated with Rich https://www.textualize.io -->
    <style>

    @font-face {
        font-family: "Fira Code";
        src: local("FiraCode-Regular"),
                url("https://cdnjs.cloudflare.com/ajax/libs/firacode/6.2.0/woff2/FiraCode-Regular.woff2") format("woff2"),
                url("https://cdnjs.cloudflare.com/ajax/libs/firacode/6.2.0/woff/FiraCode-Regular.woff") format("woff");
        font-style: normal;
        font-weight: 400;
    }
    @font-face {
        font-family: "Fira Code";
        src: local("FiraCode-Bold"),
                url("https://cdnjs.cloudflare.com/ajax/libs/firacode/6.2.0/woff2/FiraCode-Bold.woff2") format("woff2"),
                url("https://cdnjs.cloudflare.com/ajax/libs/firacode/6.2.0/woff/FiraCode-Bold.woff") format("woff");
        font-style: bold;
        font-weight: 700;
    }

    .terminal-4125115571-matrix {
        font-family: Fira Code, monospace;
        font-size: 20px;
        line-height: 24.4px;
        font-variant-east-asian: full-width;
    }

    .terminal-4125115571-title {
        font-size: 18px;
        font-weight: bold;
        font-family: arial;
    }

    .terminal-4125115571-r1 { fill: #c5c8c6 }
.terminal-4125115571-r2 { fill: #1e1e2e }
.terminal-4125115571-r3 { fill: #191919 }
.terminal-4125115571-r4 { fill: #737373 }
.terminal-4125115571-r5 { fill: #e0e0e0 }
.terminal-4125115571-r6 { fill: #7f7f7f }
.terminal-4125115571-r7 { fill: #e0e0e0;font-weight: bold }
.terminal-4125115571-r8 { fill: #ddedf9;font-weight: bold }
.terminal-4125115571-r9 { fill: #f1fa8c }
.terminal-4125115571-r10 { fill: #f1fa8c;font-weight: bold }
.terminal-4125115571-r11 { fill: #ffa62b;font-weight: bold }
.terminal-4125115571-r12 { fill: #495259 }
    </style>

    <defs>
    <clipPath id="terminal-4125115571-clip-terminal">
      <rect x="0" y="0" width="1707.0" height="877.4" />
    </clipPath>
    <clipPath id="terminal-4125115571-line-0">
    <rect x="0" y="1.5" width="1708" height="24.65"/>
            </clipPath>
<clipPath id="terminal-4125115571-line-1">
    <rect x="0" y="25.9" width="1708" height="24.65"/>
            </clipPath>
<clipPath id="terminal-4125115571-line-2">
    <rect x="0" y="50.3" width="1708" height="24.65"/>
            </clipPath>
<clipPath id="terminal-4125115571-line-3">
    <rect x="0" y="74.7" width="1708" height="24.65"/>
            </clipPath>
<clipPath id="terminal-4125115571-line-4">
    <rect x="0" y="99.1" width="1708" height="24.65"/>
            </clipPath>
<clipPath id="terminal-4125115571-line-5">
    <rect x="0" y="123.5" width="1708" height="24.65"/>
            </clipPath>
<clipPath id="terminal-4125115571-line-6">
    <rect x="0" y="147.9" width="1708" height="24.65"/>
            </clipPath>
<clipPath id="terminal-4125115571-line-7">
    <rect x="0" y="172.3" width="1708" height="24.65"/>
            </clipPath>
<clipPath id="terminal-4125115571-line-8">
    <rect x="0" y="196.7" width="1708" height="24.65"/>
            </clipPath>
<clipPath id="terminal-4125115571-line-9">
    <rect x="0" y="221.1" width="1708" height="24.65"/>
            </clipPath>
<clipPath id="terminal-4125115571-line-10">
    <rect x="0" y="245.5" width="1708" height="24.65"/>
            </clipPath>
<clipPath id="terminal-4125115571-line-11">
    <rect x="0" y="269.9" width="1708" height="24.65"/>
            </clipPath>
<clipPath id="terminal-4125115571-line-12">
    <rect x="0" y="294.3" width="1708" height="24.65"/>
            </clipPath>
<clipPath id="terminal-4125115571-line-13">
    <rect x="0" y="318.7" width="1708" height="24.65"/>
            </clipPath>
<clipPath id="terminal-4125115571-line-14">
    <rect x="0" y="343.1" width="1708" height="24.65"/>
            </clipPath>
<clipPath id="terminal-4125115571-line-15">
    <rect x="0" y="367.5" width="1708" height="24.65"/>
            </clipPath>
<clipPath id="terminal-4125115571-line-16">
    <rect x="0" y="391.9" width="1708" height="24.65"/>
            </clipPath>
<clipPath id="terminal-4125115571-line-17">
    <rect x="0" y="416.3" width="1708" height="24.65"/>
            </clipPath>
<clipPath id="terminal-4125115571-line-18">
    <rect x="0" y="440.7" width="1708" height="24.65"/>
            </clipPath>
<clipPath id="terminal-4125115571-line-19">
    <rect x="0" y="465.1" width="1708" height="24.65"/>
            </clipPath>
<clipPath id="terminal-4125115571-line-20">
    <rect x="0" y="489.5" width="1708" height="24.65"/>
            </clipPath>
<clipPath id="terminal-4125115571-line-21">
    <rect x="0" y="513.9" width="1708" height="24.65"/>
            </clipPath>
<clipPath id="terminal-4125115571-line-22">
    <rect x="0" y="538.3" width="1708" height="24.65"/>
            </clipPath>
<clipPath id="terminal-4125115571-line-23">
    <rect x="0" y="562.7" width="1708" height="24.65"/>
            </clipPath>
<clipPath id="terminal-4125115571-line-24">
    <rect x="0" y="587.1" width="1708" height="24.65"/>
            </clipPath>
<clipPath id="terminal-4125115571-line-25">
    <rect x="0" y="611.5" width="1708" height="24.65"/>
            </clipPath>
<clipPath id="terminal-4125115571-line-26">
    <rect x="0" y="635.9" width="1708" height="24.65"/>
            </clipPath>
<clipPath id="terminal-4125115571-line-27">
    <rect x="0" y="660.3" width="1708" height="24.65"/>
            </clipPath>
<clipPath id="terminal-4125115571-line-28">
    <rect x="0" y="684.7" width="1708" height="24.65"/>
            </clipPath>
<clipPath id="terminal-4125115571-line-29">
    <rect x="0" y="709.1" width="1708" height="24.65"/>
            </clipPath>
<clipPath id="terminal-4125115571-line-30">
    <rect x="0" y="733.5" width="1708" height="24.65"/>
            </clipPath>
<clipPath id="terminal-4125115571-line-31">
    <rect x="0" y="757.9" width="1708" height="24.65"/>
            </clipPath>
<clipPath id="terminal-4125115571-line-32">
    <rect x="0" y="782.3" width="1708" height="24.65"/>
            </clipPath>
<clipPath id="terminal-4125115571-line-33">
    <rect x="0" y="806.7" width="1708" height="24.65"/>
            </clipPath>
<clipPath id="terminal-4125115571-line-34">
    <rect x="0" y="831.1" width="1708" height="24.65"/>
            </clipPath>
    </defs>

    <rect fill="#292929" stroke="rgba(255,255,255,0.35)" stroke-width="1" x="1" y="1" width="1724" height="926.4" rx="8"/><text class="terminal-4125115571-title" fill="#c5c8c6" text-anchor="middle" x="862" y="27">branchboard</text>
            <g transform="translate(26,22)">
            <circle cx="0" cy="0" r="7" fill="#ff5f57"/>
            <circle cx="22" cy="0" r="7" fill="#febc2e"/>
            <circle cx="44" cy="0" r="7" fill="#28c840"/>
            </g>
        
    <g transform="translate(9, 41)" clip-path="url(#terminal-4125115571-clip-terminal)">
    <rect fill="#1e1e2e" x="0" y="1.5" width="12.2" height="24.65" shape-rendering="crispEdges"/><rect fill="#191919" x="12.2" y="1.5" width="12.2" height="24.65" shape-rendering="crispEdges"/><rect fill="#1e1e1e" x="24.4" y="1.5" width="1305.4" height="24.65" shape-rendering="crispEdges"/><rect fill="#1e1e2e" x="1329.8" y="1.5" width="12.2" height="24.65" shape-rendering="crispEdges"/><rect fill="#1e1e2e" x="1342" y="1.5" width="12.2" height="24.65" shape-rendering="crispEdges"/><rect fill="#191919" x="1354.2" y="1.5" width="12.2" height="24.65" shape-rendering="crispEdges"/><rect fill="#1e1e1e" x="1366.4" y="1.5" width="317.2" height="24.65" shape-rendering="crispEdges"/><rect fill="#1e1e2e" x="1683.6" y="1.5" width="12.2" height="24.65" shape-rendering="crispEdges"/><rect fill="#1e1e2e" x="1695.8" y="1.5" width="12.2" height="24.65" shape-rendering="crispEdges"/><rect fill="#1e1e2e" x="0" y="25.9" width="12.2" height="24.65" shape-rendering="crispEdges"/><rect fill="#191919" x="12.2" y="25.9" width="12.2" height="24.65" shape-rendering="crispEdges"/><rect fill="#1e1e1e" x="24.4" y="25.9" width="24.4" height="24.65" shape-rendering="crispEdges"/><rect fill="#1e1e1e" x="48.8" y="25.9" width="231.8" height="24.65" shape-rendering="crispEdges"/><rect fill="#1e1e1e" x="280.6" y="25.9" width="1024.8" height="24.65" shape-rendering="crispEdges"/><rect fill="#1e1e1e" x="1305.4" y="25.9" width="24.4" height="24.65" shape-rendering="crispEdges"/><rect fill="#1e1e2e" x="1329.8" y="25.9" width="12.2" height="24.65" shape-rendering="crispEdges"/><rect fill="#1e1e2e" x="1342" y="25.9" width="12.2" height="24.65" shape-rendering="crispEdges"/><rect fill="#191919" x="1354.2" y="25.9" width="12.2" height="24.65" shape-rendering="crispEdges"/><rect fill="#1e1e1e" x="1366.4" y="25.9" width="24.4" height="24.65" shape-rendering="crispEdges"/><rect fill="#1e1e1e" x="1390.8" y="25.9" width="122" height="24.65" shape-rendering="crispEdges"/><rect fill="#1e1e1e" x="1512.8" y="25.9" width="122" height="24.65" shape-rendering="crispEdges"/><rect fill="#1e1e1e" x="1634.8" y="25.9" width="12.2" height="24.65" shape-rendering="crispEdges"/><rect fill="#1e1e1e" x="1647" y="25.9" width="12.2" height="24.65" shape-rendering="crispEdges"/><rect fill="#1e1e1e" x="1659.2" y="25.9" width="24.4" height="24.65" shape-rendering="crispEdges"/><rect fill="#1e1e2e" x="1683.6" y="25.9" width="12.2" height="24.65" shape-rendering="crispEdges"/><rect fill="#1e1e2e" x="1695.8" y="25.9" width="12.2" height="24.65" shape-rendering="crispEdges"/><rect fill="#1e1e2e" x="0" y="50.3" width="12.2" height="24.65" shape-rendering="crispEdges"/><rect fill="#191919" x="12.2" y="50.3" width="12.2" height="24.65" shape-rendering="crispEdges"/><rect fill="#1e1e1e" x="24.4" y="50.3" width="1305.4" height="24.65" shape-rendering="crispEdges"/><rect fill="#1e1e2e" x="1329.8" y="50.3" width="12.2" height="24.65" shape-rendering="crispEdges"/><rect fill="#1e1e2e" x="1342" y="50.3" width="12.2" height="24.65" shape-rendering="crispEdges"/><rect fill="#191919" x="1354.2" y="50.3" width="12.2" height="24.65" shape-rendering="crispEdges"/><rect fill="#1e1e1e" x="1366.4" y="50.3" width="317.2" height="24.65" shape-rendering="crispEdges"/><rect fill="#1e1e2e" x="1683.6" y="50.3" width="12.2" height="24.65" shape-rendering="crispEdges"/><rect fill="#1e1e2e" x="1695.8" y="50.3" width="12.2" height="24.65" shape-rendering="crispEdges"/><rect fill="#2d3740" x="0" y="74.7" width="207.4" height="24.65" shape-rendering="crispEdges"/><rect fill="#2d3740" x="207.4" y="74.7" width="414.8" height="24.65" shape-rendering="crispEdges"/><rect fill="#2d3740" x="622.2" y="74.7" width="183" height="24.65" shape-rendering="crispEdges"/><rect fill="#2d3740" x="805.2" y="74.7" width="183" height="24.65" shape-rendering="crispEdges"/><rect fill="#2d3740" x="988.2" y="74.7" width="73.2" height="24.65" shape-rendering="crispEdges"/><rect fill="#2d3740" x="1061.4" y="74.7" width="585.6" height="24.65" shape-rendering="crispEdges"/><rect fill="#2d3740" x="1647" y="74.7" width="61" height="24.65" shape-rendering="crispEdges"/><rect fill="#0178d4" x="0" y="99.1" width="207.4" height="24.65" shape-rendering="crispEdges"/><rect fill="#0178d4" x="207.4" y="99.1" width="414.8" height="24.65" shape-rendering="crispEdges"/><rect fill="#0178d4" x="622.2" y="99.1" width="183" height="24.65" shape-rendering="crispEdges"/><rect fill="#0178d4" x="805.2" y="99.1" width="183" height="24.65" shape-rendering="crispEdges"/><rect fill="#0178d4" x="988.2" y="99.1" width="73.2" height="24.65" shape-rendering="crispEdges"/><rect fill="#0178d4" x="1061.4" y="99.1" width="585.6" height="24.65" shape-rendering="crispEdges"/><rect fill="#0178d4" x="1647" y="99.1" width="61" height="24.65" shape-rendering="crispEdges"/><rect fill="#272727" x="0" y="123.5" width="207.4" height="24.65" shape-rendering="crispEdges"/><rect fill="#272727" x="207.4" y="123.5" width="12.2" height="24.65" shape-rendering="crispEdges"/><rect fill="#272727" x="219.6" y="123.5" width="244" height="24.65" shape-rendering="crispEdges"/><rect fill="#272727" x="463.6" y="123.5" width="158.6" height="24.65" shape-rendering="crispEdges"/><rect fill="#272727" x="622.2" y="123.5" width="12.2" height="24.65" shape-rendering="crispEdges"/><rect fill="#272727" x="634.4" y="123.5" width="109.8" height="24.65" shape-rendering="crispEdges"/><rect fill="#272727" x="744.2" y="123.5" width="61" height="24.65" shape-rendering="crispEdges"/><rect fill="#272727" x="805.2" y="123.5" width="183" height="24.65" shape-rendering="crispEdges"/><rect fill="#272727" x="988.2" y="123.5" width="12.2" height="24.65" shape-rendering="crispEdges"/><rect fill="#272727" x="1000.4" y="123.5" width="36.6" height="24.65" shape-rendering="crispEdges"/><rect fill="#272727" x="1037" y="123.5" width="24.4" height="24.65" shape-rendering="crispEdges"/><rect fill="#272727" x="1061.4" y="123.5" width="585.6" height="24.65" shape-rendering="crispEdges"/><rect fill="#272727" x="1647" y="123.5" width="61" height="24.65" shape-rendering="crispEdges"/><rect fill="#1c1c1c" x="0" y="147.9" width="207.4" height="24.65" shape-rendering="crispEdges"/><rect fill="#1c1c1c" x="207.4" y="147.9" width="12.2" height="24.65" shape-rendering="crispEdges"/><rect fill="#1c1c1c" x="219.6" y="147.9" width="366" height="24.65" shape-rendering="crispEdges"/><rect fill="#1c1c1c" x="585.6" y="147.9" width="36.6" height="24.65" shape-rendering="crispEdges"/><rect fill="#1c1c1c" x="622.2" y="147.9" width="12.2" height="24.65" shape-rendering="crispEdges"/><rect fill="#1c1c1c" x="634.4" y="147.9" width="109.8" height="24.65" shape-rendering="crispEdges"/><rect fill="#1c1c1c" x="744.2" y="147.9" width="61" height="24.65" shape-rendering="crispEdges"/><rect fill="#1c1c1c" x="805.2" y="147.9" width="183" height="24.65" shape-rendering="crispEdges"/><rect fill="#1c1c1c" x="988.2" y="147.9" width="12.2" height="24.65" shape-rendering="crispEdges"/><rect fill="#1c1c1c" x="1000.4" y="147.9" width="48.8" height="24.65" shape-rendering="crispEdges"/><rect fill="#1c1c1c" x="1049.2" y="147.9" width="12.2" height="24.65" shape-rendering="crispEdges"/><rect fill="#1c1c1c" x="1061.4" y="147.9" width="585.6" height="24.65" shape-rendering="crispEdges"/><rect fill="#1c1c1c" x="1647" y="147.9" width="61" height="24.65" shape-rendering="crispEdges"/><rect fill="#272727" x="0" y="172.3" width="1708" height="24.65" shape-rendering="crispEdges"/><rect fill="#272727" x="0" y="196.7" width="1708" height="24.65" shape-rendering="crispEdges"/><rect fill="#272727" x="0" y="221.1" width="1708" height="24.65" shape-rendering="crispEdges"/><rect fill="#272727" x="0" y="245.5" width="1708" height="24.65" shape-rendering="crispEdges"/><rect fill="#272727" x="0" y="269.9" width="1708" height="24.65" shape-rendering="crispEdges"/><rect fill="#272727" x="0" y="294.3" width="1708" height="24.65" shape-rendering="crispEdges"/><rect fill="#272727" x="0" y="318.7" width="1708" height="24.65" shape-rendering="crispEdges"/><rect fill="#272727" x="0" y="343.1" width="1708" height="24.65" shape-rendering="crispEdges"/><rect fill="#272727" x="0" y="367.5" width="1708" height="24.65" shape-rendering="crispEdges"/><rect fill="#272727" x="0" y="391.9" width="1708" height="24.65" shape-rendering="crispEdges"/><rect fill="#272727" x="0" y="416.3" width="1708" height="24.65" shape-rendering="crispEdges"/><rect fill="#272727" x="0" y="440.7" width="1708" height="24.65" shape-rendering="crispEdges"/><rect fill="#272727" x="0" y="465.1" width="1708" height="24.65" shape-rendering="crispEdges"/><rect fill="#272727" x="0" y="489.5" width="1708" height="24.65" shape-rendering="crispEdges"/><rect fill="#272727" x="0" y="513.9" width="1708" height="24.65" shape-rendering="crispEdges"/><rect fill="#272727" x="0" y="538.3" width="1708" height="24.65" shape-rendering="crispEdges"/><rect fill="#272727" x="0" y="562.7" width="1708" height="24.65" shape-rendering="crispEdges"/><rect fill="#272727" x="0" y="587.1" width="1708" height="24.65" shape-rendering="crispEdges"/><rect fill="#272727" x="0" y="611.5" width="1708" height="24.65" shape-rendering="crispEdges"/><rect fill="#272727" x="0" y="635.9" width="1708" height="24.65" shape-rendering="crispEdges"/><rect fill="#272727" x="0" y="660.3" width="1708" height="24.65" shape-rendering="crispEdges"/><rect fill="#272727" x="0" y="684.7" width="1708" height="24.65" shape-rendering="crispEdges"/><rect fill="#272727" x="0" y="709.1" width="1708" height="24.65" shape-rendering="crispEdges"/><rect fill="#272727" x="0" y="733.5" width="1708" height="24.65" shape-rendering="crispEdges"/><rect fill="#272727" x="0" y="757.9" width="1708" height="24.65" shape-rendering="crispEdges"/><rect fill="#272727" x="0" y="782.3" width="1708" height="24.65" shape-rendering="crispEdges"/><rect fill="#272727" x="0" y="806.7" width="1708" height="24.65" shape-rendering="crispEdges"/><rect fill="#272727" x="0" y="831.1" width="1708" height="24.65" shape-rendering="crispEdges"/><rect fill="#242f38" x="0" y="855.5" width="36.6" height="24.65" shape-rendering="crispEdges"/><rect fill="#242f38" x="36.6" y="855.5" width="61" height="24.65" shape-rendering="crispEdges"/><rect fill="#242f38" x="97.6" y="855.5" width="36.6" height="24.65" shape-rendering="crispEdges"/><rect fill="#242f38" x="134.2" y="855.5" width="97.6" height="24.65" shape-rendering="crispEdges"/><rect fill="#242f38" x="231.8" y="855.5" width="36.6" height="24.65" shape-rendering="crispEdges"/><rect fill="#242f38" x="268.4" y="855.5" width="97.6" height="24.65" shape-rendering="crispEdges"/><rect fill="#242f38" x="366" y="855.5" width="36.6" height="24.65" shape-rendering="crispEdges"/><rect fill="#242f38" x="402.6" y="855.5" width="61" height="24.65" shape-rendering="crispEdges"/><rect fill="#242f38" x="463.6" y="855.5" width="1098" height="24.65" shape-rendering="crispEdges"/><rect fill="#242f38" x="1561.6" y="855.5" width="12.2" height="24.65" shape-rendering="crispEdges"/><rect fill="#242f38" x="1573.8" y="855.5" width="24.4" height="24.65" shape-rendering="crispEdges"/><rect fill="#242f38" x="1598.2" y="855.5" width="97.6" height="24.65" shape-rendering="crispEdges"/><rect fill="#242f38" x="1695.8" y="855.5" width="12.2" height="24.65" shape-rendering="crispEdges"/>
    <g class="terminal-4125115571-matrix">
    <text class="terminal-4125115571-r2" x="12.2" y="20" textLength="12.2" clip-path="url(#terminal-4125115571-line-0)">▊</text><text class="terminal-4125115571-r3" x="24.4" y="20" textLength="1305.4" clip-path="url(#terminal-4125115571-line-0)">▔▔▔▔▔▔▔▔▔▔▔▔▔▔▔▔▔▔▔▔▔▔▔▔▔▔▔▔▔▔▔▔▔▔▔▔▔▔▔▔▔▔▔▔▔▔▔▔▔▔▔▔▔▔▔▔▔▔▔▔▔▔▔▔▔▔▔▔▔▔▔▔▔▔▔▔▔▔▔▔▔▔▔▔▔▔▔▔▔▔▔▔▔▔▔▔▔▔▔▔▔▔▔▔▔▔▔</text><text class="terminal-4125115571-r3" x="1329.8" y="20" textLength="12.2" clip-path="url(#terminal-4125115571-line-0)">▎</text><text class="terminal-4125115571-r2" x="1354.2" y="20" textLength="12.2" clip-path="url(#terminal-4125115571-line-0)">▊</text><text class="terminal-4125115571-r3" x="1366.4" y="20" textLength="317.2" clip-path="url(#terminal-4125115571-line-0)">▔▔▔▔▔▔▔▔▔▔▔▔▔▔▔▔▔▔▔▔▔▔▔▔▔▔</text><text class="terminal-4125115571-r3" x="1683.6" y="20" textLength="12.2" clip-path="url(#terminal-4125115571-line-0)">▎</text><text class="terminal-4125115571-r1" x="1708" y="20" textLength="12.2" clip-path="url(#terminal-4125115571-line-0)">
</text><text class="terminal-4125115571-r2" x="12.2" y="44.4" textLength="12.2" clip-path="url(#terminal-4125115571-line-1)">▊</text><text class="terminal-4125115571-r4" x="48.8" y="44.4" textLength="231.8" clip-path="url(#terminal-4125115571-line-1)">Search&#160;repo/branch…</text><text class="terminal-4125115571-r3" x="1329.8" y="44.4" textLength="12.2" clip-path="url(#terminal-4125115571-line-1)">▎</text><text class="terminal-4125115571-r2" x="1354.2" y="44.4" textLength="12.2" clip-path="url(#terminal-4125115571-line-1)">▊</text><text class="terminal-4125115571-r5" x="1390.8" y="44.4" textLength="122" clip-path="url(#terminal-4125115571-line-1)">All&#160;States</text><text class="terminal-4125115571-r6" x="1647" y="44.4" textLength="12.2" clip-path="url(#terminal-4125115571-line-1)">▼</text><text class="terminal-4125115571-r3" x="1683.6" y="44.4" textLength="12.2" clip-path="url(#terminal-4125115571-line-1)">▎</text><text class="terminal-4125115571-r1" x="1708" y="44.4" textLength="12.2" clip-path="url(#terminal-4125115571-line-1)">
</text><text class="terminal-4125115571-r2" x="12.2" y="68.8" textLength="12.2" clip-path="url(#terminal-4125115571-line-2)">▊</text><text class="terminal-4125115571-r3" x="24.4" y="68.8" textLength="1305.4" clip-path="url(#terminal-4125115571-line-2)">▁▁▁▁▁▁▁▁▁▁▁▁▁▁▁▁▁▁▁▁▁▁▁▁▁▁▁▁▁▁▁▁▁▁▁▁▁▁▁▁▁▁▁▁▁▁▁▁▁▁▁▁▁▁▁▁▁▁▁▁▁▁▁▁▁▁▁▁▁▁▁▁▁▁▁▁▁▁▁▁▁▁▁▁▁▁▁▁▁▁▁▁▁▁▁▁▁▁▁▁▁▁▁▁▁▁▁</text><text class="terminal-4125115571-r3" x="1329.8" y="68.8" textLength="12.2" clip-path="url(#terminal-4125115571-line-2)">▎</text><text class="terminal-4125115571-r2" x="1354.2" y="68.8" textLength="12.2" clip-path="url(#terminal-4125115571-line-2)">▊</text><text class="terminal-4125115571-r3" x="1366.4" y="68.8" textLength="317.2" clip-path="url(#terminal-4125115571-line-2)">▁▁▁▁▁▁▁▁▁▁▁▁▁▁▁▁▁▁▁▁▁▁▁▁▁▁</text><text class="terminal-4125115571-r3" x="1683.6" y="68.8" textLength="12.2" clip-path="url(#terminal-4125115571-line-2)">▎</text><text class="terminal-4125115571-r1" x="1708" y="68.8" textLength="12.2" clip-path="url(#terminal-4125115571-line-2)">
</text><text class="terminal-4125115571-r7" x="0" y="93.2" textLength="207.4" clip-path="url(#terminal-4125115571-line-3)">&#160;Repo&#160;&#160;&#160;&#160;&#160;&#160;&#160;&#160;&#160;&#160;&#160;&#160;</text><text class="terminal-4125115571-r7" x="207.4" y="93.2" textLength="414.8" clip-path="url(#terminal-4125115571-line-3)">&#160;Branch&#160;&#160;&#160;&#160;&#160;&#160;&#160;&#160;&#160;&#160;&#160;&#160;&#160;&#160;&#160;&#160;&#160;&#160;&#160;&#160;&#160;&#160;&#160;&#160;&#160;&#160;&#160;</text><text class="terminal-4125115571-r7" x="622.2" y="93.2" textLength="183" clip-path="url(#terminal-4125115571-line-3)">&#160;State&#160;&#160;&#160;&#160;&#160;&#160;&#160;&#160;&#160;</text><text class="terminal-4125115571-r7" x="805.2" y="93.2" textLength="183" clip-path="url(#terminal-4125115571-line-3)">&#160;Last&#160;Activity&#160;</text><text class="terminal-4125115571-r7" x="988.2" y="93.2" textLength="73.2" clip-path="url(#terminal-4125115571-line-3)">&#160;PR#&#160;&#160;</text><text class="terminal-4125115571-r7" x="1061.4" y="93.2" textLength="585.6" clip-path="url(#terminal-4125115571-line-3)">&#160;Details&#160;&#160;&#160;&#160;&#160;&#160;&#160;&#160;&#160;&#160;&#160;&#160;&#160;&#160;&#160;&#160;&#160;&#160;&#160;&#160;&#160;&#160;&#160;&#160;&#160;&#160;&#160;&#160;&#160;&#160;&#160;&#160;&#160;&#160;&#160;&#160;&#160;&#160;&#160;&#160;</text><text class="terminal-4125115571-r1" x="1708" y="93.2" textLength="12.2" clip-path="url(#terminal-4125115571-line-3)">
</text><text class="terminal-4125115571-r8" x="0" y="117.6" textLength="207.4" clip-path="url(#terminal-4125115571-line-4)">&#160;atlas-backend&#160;&#160;&#160;</text><text class="terminal-4125115571-r8" x="207.4" y="117.6" textLength="414.8" clip-path="url(#terminal-4125115571-line-4)">&#160;feature/audit-logging&#160;&#160;&#160;&#160;&#160;&#160;&#160;&#160;&#160;&#160;&#160;&#160;</text><text class="terminal-4125115571-r8" x="622.2" y="117.6" textLength="183" clip-path="url(#terminal-4125115571-line-4)">&#160;&#160;PR&#160;Open&#160;&#160;&#160;&#160;&#160;&#160;</text><text class="terminal-4125115571-r8" x="805.2" y="117.6" textLength="183" clip-path="url(#terminal-4125115571-line-4)">&#160;yesterday&#160;&#160;&#160;&#160;&#160;</text><text class="terminal-4125115571-r8" x="988.2" y="117.6" textLength="73.2" clip-path="url(#terminal-4125115571-line-4)">&#160;#891&#160;</text><text class="terminal-4125115571-r8" x="1061.4" y="117.6" textLength="585.6" clip-path="url(#terminal-4125115571-line-4)">&#160;Add&#160;audit&#160;logging&#160;for&#160;all&#160;admin&#160;endpoints&#160;&#160;&#160;&#160;&#160;&#160;</text><text class="terminal-4125115571-r1" x="1708" y="117.6" textLength="12.2" clip-path="url(#terminal-4125115571-line-4)">
</text><text class="terminal-4125115571-r5" x="0" y="142" textLength="207.4" clip-path="url(#terminal-4125115571-line-5)">&#160;data-pipeline&#160;&#160;&#160;</text><text class="terminal-4125115571-r9" x="219.6" y="142" textLength="244" clip-path="url(#terminal-4125115571-line-5)">feature/parquet-sink</text><text class="terminal-4125115571-r10" x="634.4" y="142" textLength="109.8" clip-path="url(#terminal-4125115571-line-5)">&#160;PR&#160;Open&#160;</text><text class="terminal-4125115571-r5" x="805.2" y="142" textLength="183" clip-path="url(#terminal-4125115571-line-5)">&#160;6d&#160;ago&#160;&#160;&#160;&#160;&#160;&#160;&#160;&#160;</text><text class="terminal-4125115571-r9" x="1000.4" y="142" textLength="36.6" clip-path="url(#terminal-4125115571-line-5)">#73</text><text class="terminal-4125115571-r5" x="1061.4" y="142" textLength="585.6" clip-path="url(#terminal-4125115571-line-5)">&#160;Add&#160;Parquet&#160;sink&#160;connector&#160;for&#160;S3&#160;&#160;&#160;&#160;&#160;&#160;&#160;&#160;&#160;&#160;&#160;&#160;&#160;&#160;</text><text class="terminal-4125115571-r1" x="1708" y="142" textLength="12.2" clip-path="url(#terminal-4125115571-line-5)">
</text><text class="terminal-4125115571-r5" x="0" y="166.4" textLength="207.4" clip-path="url(#terminal-4125115571-line-6)">&#160;mercury-api&#160;&#160;&#160;&#160;&#160;</text><text class="terminal-4125115571-r9" x="219.6" y="166.4" textLength="366" clip-path="url(#terminal-4125115571-line-6)">fix/connection-pool-exhaustion</text><text class="terminal-4125115571-r10" x="634.4" y="166.4" textLength="109.8" clip-path="url(#terminal-4125115571-line-6)">&#160;PR&#160;Open&#160;</text><text class="terminal-4125115571-r5" x="805.2" y="166.4" textLength="183" clip-path="url(#terminal-4125115571-line-6)">&#160;2d&#160;ago&#160;&#160;&#160;&#160;&#160;&#160;&#160;&#160;</text><text class="terminal-4125115571-r9" x="1000.4" y="166.4" textLength="48.8" clip-path="url(#terminal-4125115571-line-6)">#156</text><text class="terminal-4125115571-r5" x="1061.4" y="166.4" textLength="585.6" clip-path="url(#terminal-4125115571-line-6)">&#160;Fix&#160;DB&#160;connection&#160;pool&#160;exhaustion&#160;under&#160;load&#160;&#160;&#160;</text><text class="terminal-4125115571-r1" x="1708" y="166.4" textLength="12.2" clip-path="url(#terminal-4125115571-line-6)">
</text><text class="terminal-4125115571-r1" x="1708" y="190.8" textLength="12.2" clip-path="url(#terminal-4125115571-line-7)">
</text><text class="terminal-4125115571-r1" x="1708" y="215.2" textLength="12.2" clip-path="url(#terminal-4125115571-line-8)">
</text><text class="terminal-4125115571-r1" x="1708" y="239.6" textLength="12.2" clip-path="url(#terminal-4125115571-line-9)">
</text><text class="terminal-4125115571-r1" x="1708" y="264" textLength="12.2" clip-path="url(#terminal-4125115571-line-10)">
</text><text class="terminal-4125115571-r1" x="1708" y="288.4" textLength="12.2" clip-path="url(#terminal-4125115571-line-11)">
</text><text class="terminal-4125115571-r1" x="1708" y="312.8" textLength="12.2" clip-path="url(#terminal-4125115571-line-12)">
</text><text class="terminal-4125115571-r1" x="1708" y="337.2" textLength="12.2" clip-path="url(#terminal-4125115571-line-13)">
</text><text class="terminal-4125115571-r1" x="1708" y="361.6" textLength="12.2" clip-path="url(#terminal-4125115571-line-14)">
</text><text class="terminal-4125115571-r1" x="1708" y="386" textLength="12.2" clip-path="url(#terminal-4125115571-line-15)">
</text><text class="terminal-4125115571-r1" x="1708" y="410.4" textLength="12.2" clip-path="url(#terminal-4125115571-line-16)">
</text><text class="terminal-4125115571-r1" x="1708" y="434.8" textLength="12.2" clip-path="url(#terminal-4125115571-line-17)">
</text><text class="terminal-4125115571-r1" x="1708" y="459.2" textLength="12.2" clip-path="url(#terminal-4125115571-line-18)">
</text><text class="terminal-4125115571-r1" x="1708" y="483.6" textLength="12.2" clip-path="url(#terminal-4125115571-line-19)">
</text><text class="terminal-4125115571-r1" x="1708" y="508" textLength="12.2" clip-path="url(#terminal-4125115571-line-20)">
</text><text class="terminal-4125115571-r1" x="1708" y="532.4" textLength="12.2" clip-path="url(#terminal-4125115571-line-21)">
</text><text class="terminal-4125115571-r1" x="1708" y="556.8" textLength="12.2" clip-path="url(#terminal-4125115571-line-22)">
</text><text class="terminal-4125115571-r1" x="1708" y="581.2" textLength="12.2" clip-path="url(#terminal-4125115571-line-23)">
</text><text class="terminal-4125115571-r1" x="1708" y="605.6" textLength="12.2" clip-path="url(#terminal-4125115571-line-24)">
</text><text class="terminal-4125115571-r1" x="1708" y="630" textLength="12.2" clip-path="url(#terminal-4125115571-line-25)">
</text><text class="terminal-4125115571-r1" x="1708" y="654.4" textLength="12.2" clip-path="url(#terminal-4125115571-line-26)">
</text><text class="terminal-4125115571-r1" x="1708" y="678.8" textLength="12.2" clip-path="url(#terminal-4125115571-line-27)">
</text><text class="terminal-4125115571-r1" x="1708" y="703.2" textLength="12.2" clip-path="url(#terminal-4125115571-line-28)">
</text><text class="terminal-4125115571-r1" x="1708" y="727.6" textLength="12.2" clip-path="url(#terminal-4125115571-line-29)">
</text><text class="terminal-4125115571-r1" x="1708" y="752" textLength="12.2" clip-path="url(#terminal-4125115571-line-30)">
</text><text class="terminal-4125115571-r1" x="1708" y="776.4" textLength="12.2" clip-path="url(#terminal-4125115571-line-31)">
</text><text class="terminal-4125115571-r1" x="1708" y="800.8" textLength="12.2" clip-path="url(#terminal-4125115571-line-32)">
</text><text class="terminal-4125115571-r1" x="1708" y="825.2" textLength="12.2" clip-path="url(#terminal-4125115571-line-33)">
</text><text class="terminal-4125115571-r1" x="1708" y="849.6" textLength="12.2" clip-path="url(#terminal-4125115571-line-34)">
</text><text class="terminal-4125115571-r11" x="0" y="874" textLength="36.6" clip-path="url(#terminal-4125115571-line-35)">&#160;q&#160;</text><text class="terminal-4125115571-r5" x="36.6" y="874" textLength="61" clip-path="url(#terminal-4125115571-line-35)">Quit&#160;</text><text class="terminal-4125115571-r11" x="97.6" y="874" textLength="36.6" clip-path="url(#terminal-4125115571-line-35)">&#160;r&#160;</text><text class="terminal-4125115571-r5" x="134.2" y="874" textLength="97.6" clip-path="url(#terminal-4125115571-line-35)">Refresh&#160;</text><text class="terminal-4125115571-r11" x="231.8" y="874" textLength="36.6" clip-path="url(#terminal-4125115571-line-35)">&#160;o&#160;</text><text class="terminal-4125115571-r5" x="268.4" y="874" textLength="97.6" clip-path="url(#terminal-4125115571-line-35)">Open&#160;PR&#160;</text><text class="terminal-4125115571-r11" x="366" y="874" textLength="36.6" clip-path="url(#terminal-4125115571-line-35)">&#160;s&#160;</text><text class="terminal-4125115571-r5" x="402.6" y="874" textLength="61" clip-path="url(#terminal-4125115571-line-35)">Sort&#160;</text><text class="terminal-4125115571-r12" x="1561.6" y="874" textLength="12.2" clip-path="url(#terminal-4125115571-line-35)">▏</text><text class="terminal-4125115571-r11" x="1573.8" y="874" textLength="24.4" clip-path="url(#terminal-4125115571-line-35)">^p</text><text class="terminal-4125115571-r5" x="1598.2" y="874" textLength="97.6" clip-path="url(#terminal-4125115571-line-35)">&#160;palette</text>
    </g>
    </g>
</svg>
